<svg width="72" height="33" viewBox="0 0 72 33" fill="none" xmlns="http://www.w3.org/2000/svg">
<path d="M23.0721 5.22133H18.1764L27.1044 27.7787H32L23.0721 5.22133ZM8.92787 5.22133L0 27.7787H4.99227L6.818 23.0417H16.1583L17.984 27.7788H22.9763L14.0484 5.2212L8.92787 5.22133ZM8.43293 18.8523L11.4881 10.9248L14.5433 18.8523H8.43293Z" fill="black"/>
<mask id="mask0_811_250" style="mask-type:luminance" maskUnits="userSpaceOnUse" x="40" y="0" width="32" height="33">
<path d="M72 0H40V33H72V0Z" fill="white"/>
</mask>
<g mask="url(#mask0_811_250)">
<path d="M69.898 13.4796C70.632 11.2358 70.378 8.7797 69.201 6.7396C67.4315 3.61208 63.875 2.0033 60.4016 2.75924C58.4443 0.548493 55.4744 -0.434583 52.6099 0.180071C49.7454 0.794724 47.4211 2.9138 46.512 5.73964C44.2305 6.21472 42.2613 7.66523 41.1083 9.72C39.3196 12.8425 39.7256 16.7812 42.1123 19.4599C41.3758 21.7027 41.6275 24.159 42.803 26.1998C44.5747 29.3284 48.1335 30.9371 51.6087 30.1802C53.1545 31.9476 55.3751 32.9532 57.703 32.94C61.2632 32.9432 64.4172 30.6095 65.5047 27.1673C67.7859 26.6915 69.755 25.2412 70.908 23.187C72.676 20.07 72.268 16.1526 69.898 13.4796ZM57.703 30.7841C56.282 30.7864 54.9055 30.2806 53.8149 29.3556L54.0068 29.2452L60.4656 25.4596C60.7926 25.2649 60.9943 24.9095 60.9963 24.5246V15.2782L63.727 16.882C63.7543 16.8962 63.7733 16.9227 63.7781 16.9535V24.6155C63.7711 28.0193 61.0553 30.7769 57.703 30.7841ZM44.6447 25.122C43.9321 23.8725 43.6762 22.4079 43.9221 20.9858L44.1139 21.1026L50.5791 24.8882C50.9049 25.0823 51.3085 25.0823 51.6343 24.8882L59.5319 20.265V23.4662C59.5304 23.4998 59.514 23.5309 59.4872 23.5506L52.9452 27.3816C50.0382 29.0821 46.3241 28.071 44.6447 25.122ZM42.9437 10.8368C43.6612 9.5793 44.7939 8.62014 46.1411 8.12915V15.921C46.1361 16.3045 46.3371 16.6602 46.6655 16.8496L54.5248 21.4533L51.7941 23.0571C51.7642 23.0733 51.7282 23.0733 51.6982 23.0571L45.1691 19.2326C42.2677 17.525 41.2727 13.7566 42.9437 10.8044V10.8368ZM65.3768 16.1288L57.492 11.4797L60.2162 9.88233C60.2462 9.86617 60.2821 9.86617 60.3121 9.88233L66.8412 13.7133C68.879 14.9073 70.055 17.1887 69.859 19.5693C69.663 21.95 68.131 24.0019 65.9268 24.8363V17.0444C65.9153 16.6621 65.7063 16.3142 65.3768 16.1288ZM68.095 11.9796L67.9028 11.8628L61.4504 8.04474C61.1227 7.84948 60.7166 7.84948 60.3888 8.04474L52.4976 12.6679V9.46676C52.4942 9.43361 52.5089 9.40122 52.536 9.38235L59.0651 5.55783C61.1079 4.3629 63.6468 4.47441 65.5803 5.84398C67.5139 7.21355 68.494 9.59442 68.095 11.9537V11.9796ZM51.0076 17.6547L48.277 16.0574C48.2494 16.0404 48.2306 16.0119 48.2258 15.9795V8.33694C48.2289 5.94362 49.5938 3.76766 51.7284 2.75275C53.863 1.73783 56.383 2.06676 58.1954 3.59687L58.0036 3.70726L51.5447 7.49282C51.2177 7.68757 51.016 8.04291 51.014 8.42784L51.0076 17.6547ZM52.4912 14.4081L56.0084 12.3498L59.5319 14.4081V18.5248L56.0211 20.5832L52.4976 18.5248L52.4912 14.4081Z" fill="black"/>
</g>
</svg>
