<svg width="73" height="32" viewBox="0 0 73 32" fill="none" xmlns="http://www.w3.org/2000/svg">
<g clip-path="url(#clip0_811_816)">
<path d="M14.5274 1.34125C15.2287 1.23625 15.9474 1.18375 16.6843 1.18375C24.8556 1.18375 31.4831 7.81188 31.4831 15.9825C31.4831 23.4519 25.9424 29.6331 18.7531 30.6413C18.0518 30.7463 17.3331 30.7987 16.5962 30.7987C8.42494 30.7987 1.79744 24.1713 1.79744 16C1.79744 8.53062 7.32932 2.34937 14.5274 1.34125ZM16.5962 0C7.75869 0 0.596191 7.1625 0.596191 16C0.596191 24.8375 7.75869 32 16.5962 32C25.4337 32 32.5962 24.8375 32.5962 16C32.5962 7.1625 25.4337 0 16.5962 0Z" fill="url(#paint0_linear_811_816)"/>
<path d="M16.596 1.20126C15.8948 1.20126 15.2023 1.25376 14.5273 1.34126C7.37289 2.38439 1.88477 8.54814 1.88477 15.9913C1.88477 24.1625 8.51289 30.79 16.6835 30.79C17.3848 30.79 18.0773 30.7375 18.7523 30.65C25.906 29.6069 31.3948 23.4431 31.3948 16.0088C31.3948 7.82876 24.7673 1.20126 16.596 1.20126Z" fill="url(#paint1_radial_811_816)"/>
<path d="M26.705 5.89124L14.9131 14.2731L18.4112 17.7531L26.705 5.89124Z" fill="#CD151E"/>
<path d="M14.9219 14.2469L16.6837 15.9912L26.705 5.89124L14.9219 14.2469Z" fill="#FA5153"/>
<path d="M14.9216 14.2469L18.4198 17.7269L6.61914 26.1088L14.9216 14.2469Z" fill="#ACACAC"/>
<path d="M6.61914 26.1088L16.6835 15.9913L14.9216 14.2469L6.61914 26.1088Z" fill="#EEEEEE"/>
<path d="M25.6088 26.9237C25.5738 26.95 25.5301 26.9675 25.4863 26.9675C25.5301 26.9675 25.5738 26.9587 25.6088 26.9237Z" fill="#E9E9E9"/>
<path d="M25.6264 26.915C25.6264 26.915 25.6176 26.9238 25.6089 26.9238C25.6176 26.9238 25.6176 26.915 25.6264 26.915Z" fill="#E9E9E9"/>
<path d="M20.8394 26.38C20.7956 26.415 20.7781 26.4763 20.7869 26.5288C20.7781 26.4769 20.8044 26.4156 20.8394 26.38Z" fill="#E9E9E9"/>
<path d="M27.5551 24.9775C27.5463 24.9863 27.5463 24.9863 27.5376 24.995C27.5463 24.9863 27.5551 24.9775 27.5551 24.9775Z" fill="#E9E9E9"/>
<path d="M27.5989 24.8637C27.5989 24.8987 27.5814 24.9425 27.5552 24.9687C27.5902 24.9425 27.5989 24.9075 27.5989 24.8637Z" fill="#E9E9E9"/>
<path d="M30.1586 12.0287C30.1411 12.0725 30.0973 12.1075 30.0536 12.125L28.9579 12.4844C28.9492 12.4844 28.9492 12.4844 28.9404 12.4931C28.9492 12.4931 28.9579 12.4931 28.9667 12.4844L30.0623 12.125C30.1061 12.1075 30.1411 12.0725 30.1586 12.0287Z" fill="#E9E9E9"/>
<path d="M26.1876 9.87189C26.1613 9.88939 26.1351 9.89814 26.1001 9.89814C26.1263 9.89814 26.1613 9.88939 26.1876 9.87189Z" fill="#E9E9E9"/>
<path d="M24.6792 6.25125C24.7142 6.2775 24.7492 6.295 24.7842 6.295C24.7492 6.28625 24.7142 6.2775 24.6792 6.25125Z" fill="#E9E9E9"/>
<path d="M24.6704 6.23312C24.6792 6.24187 24.6792 6.24187 24.6879 6.25062C24.6792 6.2425 24.6704 6.2425 24.6704 6.23312Z" fill="#E9E9E9"/>
<path d="M15.2287 30.1237C15.22 30.1237 15.2112 30.1237 15.2112 30.1237C15.0975 30.115 15.0269 30.0275 15.0269 29.9219L15.1144 28.7556C15.1231 28.6506 15.2019 28.58 15.2987 28.58C15.3075 28.58 15.3162 28.58 15.325 28.58C15.4387 28.5887 15.5094 28.6762 15.5094 28.7819L15.4219 29.9481C15.4125 30.045 15.3337 30.1237 15.2287 30.1237Z" fill="#E9E9E9"/>
<path d="M18.0335 30.115C17.9285 30.115 17.8404 30.045 17.8316 29.9481L17.6829 28.7994C17.6741 28.7031 17.7441 28.5975 17.8585 28.5887C17.8672 28.5887 17.876 28.5887 17.8847 28.5887C17.9897 28.5887 18.0779 28.6587 18.0866 28.7556L18.2354 29.9044C18.2441 30.0006 18.1741 30.1062 18.0597 30.115C18.0516 30.115 18.0429 30.115 18.0335 30.115Z" fill="#E9E9E9"/>
<path d="M20.6906 29.5712C20.6119 29.5712 20.5419 29.5275 20.5062 29.4487L20.1469 28.3531C20.1206 28.2569 20.1731 28.1425 20.2694 28.0987C20.2956 28.09 20.3131 28.09 20.3394 28.09C20.4181 28.09 20.4881 28.1337 20.5237 28.2125L20.8831 29.3081C20.8919 29.3256 20.8919 29.3519 20.8919 29.3694C20.8919 29.4219 20.8656 29.4744 20.8306 29.5094C20.8131 29.5269 20.7869 29.5444 20.7606 29.5531C20.7344 29.5712 20.7169 29.5712 20.6906 29.5712Z" fill="#E9E9E9"/>
<path d="M12.5191 29.5888C12.5016 29.5888 12.4928 29.5888 12.4753 29.58C12.3791 29.5538 12.2997 29.44 12.3353 29.3431L12.651 28.2206C12.6685 28.1331 12.7472 28.0806 12.8353 28.0806C12.8528 28.0806 12.8703 28.0806 12.8878 28.0894C12.9841 28.1156 13.0635 28.2294 13.0278 28.3263L12.7122 29.4488C12.7035 29.4838 12.686 29.51 12.6685 29.5275C12.6247 29.5713 12.5716 29.5888 12.5191 29.5888Z" fill="#E9E9E9"/>
<path d="M16.57 30.1763C16.4563 30.1763 16.3682 30.0888 16.3682 29.9919V27.3794C16.3682 27.2831 16.4644 27.195 16.57 27.195C16.6838 27.195 16.7719 27.2825 16.7719 27.3794V29.9919C16.7719 30.0888 16.6838 30.1763 16.57 30.1763Z" fill="#E9E9E9"/>
<path d="M22.4877 27.415C22.4352 27.3275 22.4614 27.2131 22.5664 27.1519C22.6014 27.1344 22.6364 27.1256 22.6714 27.1256C22.7327 27.1256 22.7939 27.1519 22.8289 27.2131L23.4077 28.2212C23.4602 28.3087 23.4339 28.4319 23.3289 28.4844C23.2939 28.5019 23.2589 28.5106 23.2239 28.5106C23.1627 28.5106 23.1014 28.4844 23.0664 28.4231L22.4877 27.415Z" fill="#E9E9E9"/>
<path d="M9.97676 28.5369C9.95051 28.5369 9.91551 28.5281 9.88926 28.5106C9.79301 28.4581 9.74926 28.3437 9.80176 28.2475L10.328 27.2131C10.363 27.1431 10.433 27.1081 10.5036 27.1081C10.5299 27.1081 10.5649 27.1169 10.5911 27.1344C10.6874 27.1869 10.7311 27.3012 10.6786 27.3975L10.1524 28.4319C10.1086 28.4931 10.0474 28.5369 9.97676 28.5369Z" fill="#E9E9E9"/>
<path d="M13.8433 29.9044C13.8258 29.9044 13.817 29.9044 13.7995 29.8956C13.6858 29.8694 13.6239 29.7731 13.6327 29.6675L14.1414 27.1075C14.1677 27.02 14.2464 26.9587 14.352 26.9587C14.3608 26.9587 14.3695 26.9587 14.3783 26.9587C14.492 26.985 14.5539 27.0812 14.5452 27.1869L14.0364 29.7469C14.0102 29.8344 13.9314 29.9044 13.8433 29.9044Z" fill="#E9E9E9"/>
<path d="M18.6564 27.1869C18.6302 27.0906 18.6914 26.985 18.8052 26.9588C18.8227 26.9588 18.8314 26.95 18.8489 26.95C18.9452 26.95 19.0245 27.02 19.042 27.1075L19.5683 29.6675C19.5945 29.7638 19.5158 29.8781 19.4195 29.8956C19.402 29.8956 19.3933 29.9044 19.3758 29.9044C19.3408 29.9044 19.3058 29.8956 19.2795 29.8781C19.227 29.8519 19.192 29.8081 19.1833 29.7556L18.6564 27.1869Z" fill="#E9E9E9"/>
<path d="M21.9793 29.0981C21.9005 29.0981 21.8305 29.0544 21.7949 28.9844L20.7868 26.5731C20.7518 26.4856 20.7955 26.3712 20.9005 26.3187C20.9268 26.31 20.953 26.3012 20.9793 26.3012C21.058 26.3012 21.128 26.345 21.1636 26.415L22.1718 28.8262C22.2068 28.9225 22.163 29.0369 22.058 29.0806C22.0318 29.0981 22.0055 29.0981 21.9793 29.0981Z" fill="#E9E9E9"/>
<path d="M11.2043 29.0981C11.1781 29.0981 11.1518 29.0894 11.1168 29.0806C11.0206 29.0456 10.9681 28.9319 11.0031 28.8263L12.0024 26.415C12.0374 26.345 12.1074 26.2925 12.1868 26.2925C12.2131 26.2925 12.2393 26.3013 12.2656 26.31C12.3618 26.345 12.4143 26.4588 12.3793 26.5644L11.3799 28.9756C11.3537 29.0631 11.2831 29.0981 11.2043 29.0981Z" fill="#E9E9E9"/>
<path d="M25.4949 27.0025C25.4424 27.0025 25.3899 26.9762 25.3461 26.9412L24.5836 26.0644C24.5224 25.9769 24.5224 25.8537 24.6099 25.7925C24.6536 25.7575 24.6974 25.74 24.7411 25.74C24.7936 25.74 24.8461 25.7662 24.8899 25.8012L25.6524 26.6781C25.7311 26.7569 25.7136 26.88 25.6261 26.95C25.5824 26.985 25.5386 27.0025 25.4949 27.0025Z" fill="#E9E9E9"/>
<path d="M24.3723 27.8181C24.311 27.8181 24.2498 27.7919 24.2054 27.7306L22.7585 25.565C22.6973 25.4687 22.7235 25.3544 22.8198 25.2931C22.8548 25.2669 22.8898 25.2581 22.9335 25.2581C22.9948 25.2581 23.056 25.2844 23.1004 25.3456L24.5473 27.5112C24.6085 27.5987 24.5823 27.7219 24.486 27.7831C24.4517 27.8094 24.416 27.8181 24.3723 27.8181Z" fill="#E9E9E9"/>
<path d="M8.78495 27.8006C8.74995 27.8006 8.70619 27.7919 8.67119 27.7656C8.58369 27.7044 8.55744 27.5813 8.60994 27.4938L10.0568 25.3281C10.0918 25.2756 10.1618 25.2406 10.2237 25.2406C10.2587 25.2406 10.3024 25.2494 10.3374 25.2756C10.4249 25.3369 10.4512 25.46 10.3987 25.5475L8.95182 27.7131C8.90745 27.7656 8.8462 27.8006 8.78495 27.8006Z" fill="#E9E9E9"/>
<path d="M27.4326 25.065C27.3888 25.065 27.3451 25.0562 27.3101 25.03L26.3982 24.32C26.3107 24.2587 26.302 24.1356 26.3632 24.0481C26.3982 23.9956 26.4595 23.9694 26.512 23.9694C26.5557 23.9694 26.5995 23.9781 26.6345 24.0044L27.5463 24.7144C27.6338 24.7756 27.6426 24.8987 27.5813 24.9862C27.5463 25.0387 27.4938 25.065 27.4326 25.065Z" fill="#E9E9E9"/>
<path d="M5.75133 25.0387C5.69883 25.0387 5.63758 25.0125 5.59383 24.9688C5.51508 24.8813 5.53258 24.7581 5.60258 24.6969L6.4882 23.9431C6.5232 23.9081 6.56695 23.8906 6.6107 23.8906C6.6632 23.8906 6.72445 23.9169 6.7682 23.9606C6.84695 24.0481 6.82945 24.1713 6.75945 24.2325L5.87383 24.9862C5.83883 25.0212 5.79508 25.0387 5.75133 25.0387Z" fill="#E9E9E9"/>
<path d="M26.4941 26.0825C26.4416 26.0825 26.3979 26.065 26.3541 26.03L24.5041 24.1888C24.4166 24.11 24.4166 23.9869 24.5041 23.9169C24.5391 23.8819 24.5916 23.8644 24.6441 23.8644C24.6966 23.8644 24.7404 23.8819 24.7841 23.9169L26.6341 25.7581C26.7129 25.8369 26.7129 25.96 26.6341 26.03C26.5991 26.0644 26.5466 26.0825 26.4941 26.0825Z" fill="#E9E9E9"/>
<path d="M6.66293 26.0294C6.61043 26.0294 6.56668 26.0119 6.52293 25.9769C6.44418 25.8981 6.44418 25.775 6.52293 25.705L8.37293 23.8637C8.40793 23.8287 8.46043 23.8112 8.51293 23.8112C8.56543 23.8112 8.60918 23.8287 8.65293 23.8637C8.73168 23.9425 8.73168 24.0656 8.65293 24.1356L6.80293 25.9769C6.75918 26.0119 6.70668 26.0294 6.66293 26.0294Z" fill="#E9E9E9"/>
<path d="M28.2212 23.9781C28.1862 23.9781 28.1512 23.9694 28.1249 23.9519L25.9505 22.505C25.8543 22.4438 25.8368 22.3206 25.898 22.2331C25.9418 22.1719 26.003 22.1456 26.0737 22.1456C26.1087 22.1456 26.1437 22.1544 26.1699 22.1719L28.3443 23.6188C28.4318 23.68 28.458 23.7944 28.3968 23.8906C28.353 23.9431 28.283 23.9781 28.2212 23.9781Z" fill="#E9E9E9"/>
<path d="M4.9361 23.9344C4.87485 23.9344 4.80485 23.8994 4.76922 23.8381C4.70797 23.7506 4.73422 23.6275 4.82172 23.5663L6.9961 22.1194C7.0311 22.0931 7.0661 22.0844 7.1011 22.0844C7.16235 22.0844 7.23235 22.1194 7.26797 22.1806C7.32922 22.2681 7.30297 22.3913 7.21547 22.4525L5.0411 23.8994C5.01485 23.9256 4.97985 23.9344 4.9361 23.9344Z" fill="#E9E9E9"/>
<path d="M27.818 22.2512C27.7217 22.2162 27.678 22.0844 27.7305 21.9881C27.7655 21.9181 27.8355 21.8831 27.9061 21.8831C27.9323 21.8831 27.9673 21.8919 27.9936 21.9094L29.028 22.4356C29.1242 22.4881 29.168 22.6025 29.1155 22.6987C29.0805 22.7687 29.0105 22.8037 28.9398 22.8037C28.9136 22.8037 28.8786 22.795 28.8523 22.7775L27.818 22.2512Z" fill="#E9E9E9"/>
<path d="M4.04199 22.5669C4.04199 22.4969 4.06824 22.4356 4.12949 22.4L5.13762 21.8213C5.16387 21.8038 5.19887 21.795 5.22512 21.795C5.29512 21.795 5.36512 21.83 5.40074 21.8913C5.45324 21.9875 5.42699 22.1019 5.33949 22.1544L4.33137 22.7331C4.30512 22.7506 4.27012 22.7594 4.24387 22.7594C4.24387 22.7594 4.24387 22.7594 4.23512 22.7594C4.23512 22.7594 4.23512 22.7594 4.22637 22.7594C4.16512 22.7594 4.09512 22.7244 4.05949 22.6631C4.05074 22.6281 4.04199 22.5931 4.04199 22.5669Z" fill="#E9E9E9"/>
<path d="M29.5012 21.5756C29.475 21.5756 29.4575 21.5756 29.4312 21.5669L27.02 20.5588C26.9237 20.5063 26.88 20.3919 26.9237 20.2956C26.95 20.2169 27.0287 20.1731 27.1081 20.1731C27.1344 20.1731 27.1519 20.1731 27.1781 20.1819L29.5894 21.1813C29.6769 21.2163 29.7119 21.295 29.7031 21.3919C29.7031 21.4094 29.6944 21.4269 29.6944 21.4444C29.6506 21.5319 29.5806 21.5756 29.5012 21.5756Z" fill="#E9E9E9"/>
<path d="M3.47168 21.3131C3.47168 21.2344 3.50668 21.1644 3.58543 21.1288L5.99668 20.1294C6.02293 20.1206 6.04043 20.1206 6.06668 20.1206C6.14543 20.1206 6.21543 20.1644 6.25106 20.2431C6.28606 20.3394 6.25105 20.4538 6.1548 20.5063L3.74355 21.5056C3.7173 21.5144 3.6998 21.5144 3.67355 21.5144C3.5948 21.5144 3.5248 21.4706 3.48918 21.3919C3.47168 21.3656 3.47168 21.3394 3.47168 21.3131Z" fill="#E9E9E9"/>
<path d="M30.0014 20.2694C29.9839 20.2694 29.9664 20.2694 29.9489 20.2606L28.8264 19.945C28.7302 19.9188 28.6595 19.8225 28.6864 19.7081C28.7039 19.6294 28.7827 19.5594 28.8708 19.5594C28.8883 19.5594 28.9058 19.5594 28.9233 19.5681L30.0458 19.8838C30.0808 19.8925 30.107 19.91 30.1245 19.9275C30.177 19.9713 30.1945 20.05 30.177 20.1206C30.1589 20.2081 30.0802 20.2694 30.0014 20.2694Z" fill="#E9E9E9"/>
<path d="M3.20001 20.2344C3.12126 20.2344 3.04251 20.1819 3.00688 20.0944C2.97188 19.9981 3.01563 19.8837 3.12938 19.84L4.22501 19.4806C4.24251 19.4806 4.26001 19.4719 4.27751 19.4719C4.36501 19.4719 4.44438 19.5244 4.47938 19.6031C4.51438 19.6994 4.47063 19.8137 4.35688 19.8575L3.26126 20.2169C3.24376 20.2344 3.22626 20.2344 3.20001 20.2344Z" fill="#E9E9E9"/>
<path d="M30.2994 18.9631C30.2906 18.9631 30.2819 18.9631 30.2731 18.9631L27.7131 18.4544C27.6169 18.4281 27.5462 18.3319 27.5644 18.2175C27.5906 18.1125 27.6694 18.0506 27.7662 18.0506C27.775 18.0506 27.7837 18.0506 27.7925 18.0506L30.3525 18.5594C30.4487 18.5856 30.5281 18.6819 30.5012 18.7963C30.4744 18.9019 30.3869 18.9631 30.2994 18.9631Z" fill="#E9E9E9"/>
<path d="M2.77057 18.4987C2.78807 18.49 2.81432 18.4812 2.83182 18.4725L5.39182 17.9725C5.40057 17.9725 5.41807 17.9637 5.42682 17.9637C5.51432 17.9637 5.5937 18.0337 5.6112 18.1306C5.63745 18.2444 5.5587 18.3412 5.46245 18.3675L2.90245 18.8675C2.8937 18.8675 2.8762 18.8762 2.86745 18.8762C2.77995 18.8762 2.70057 18.8062 2.68307 18.7094C2.68307 18.6919 2.67432 18.6831 2.67432 18.6656C2.6737 18.595 2.70932 18.5337 2.77057 18.4987Z" fill="#E9E9E9"/>
<path d="M30.5094 17.6044L29.3431 17.5169C29.2469 17.5081 29.1675 17.4031 29.1675 17.3063C29.1762 17.1925 29.2637 17.1219 29.3694 17.1219L30.5356 17.2094C30.6319 17.2181 30.72 17.3056 30.7112 17.42C30.6937 17.5256 30.6062 17.6044 30.5094 17.6044Z" fill="#E9E9E9"/>
<path d="M2.67384 17.5431C2.57759 17.5431 2.49822 17.4731 2.48072 17.3675C2.47197 17.2538 2.54197 17.1569 2.64759 17.1394L3.79634 16.9994C3.80509 16.9994 3.81384 16.9994 3.81384 16.9994C3.91009 16.9994 3.98947 17.0694 4.00697 17.175C4.01572 17.2888 3.94572 17.3856 3.84009 17.4031L2.69134 17.5431C2.69197 17.5344 2.68322 17.5431 2.67384 17.5431Z" fill="#E9E9E9"/>
<path d="M27.9676 16.2369C27.8713 16.2369 27.7832 16.1494 27.7832 16.035C27.7832 15.9206 27.8707 15.8331 27.9676 15.8331H30.5801C30.6763 15.8331 30.7645 15.9206 30.7645 16.035C30.7645 16.1494 30.677 16.2369 30.5801 16.2369H27.9676Z" fill="#E9E9E9"/>
<path d="M2.6126 16.1669C2.51635 16.1669 2.42822 16.0794 2.42822 15.965C2.42822 15.8512 2.51572 15.7631 2.6126 15.7631H5.2251C5.32135 15.7631 5.40947 15.8506 5.40947 15.965C5.40947 16.0787 5.32197 16.1669 5.2251 16.1669H2.6126Z" fill="#E9E9E9"/>
<path d="M29.3789 15.0006C29.2827 15.0006 29.2033 14.9306 29.1858 14.825C29.177 14.7113 29.247 14.6144 29.3527 14.5969L30.5014 14.4569C30.5102 14.4569 30.5189 14.4569 30.5189 14.4569C30.6152 14.4569 30.6945 14.5269 30.712 14.6325C30.7208 14.7463 30.6508 14.8431 30.5452 14.8606L29.3964 15.0006C29.3877 15.0006 29.3789 15.0006 29.3789 15.0006Z" fill="#E9E9E9"/>
<path d="M3.82246 14.8869L2.65621 14.7994C2.55996 14.7906 2.47183 14.7031 2.48058 14.5888C2.48933 14.475 2.57683 14.4044 2.68246 14.4044L3.84871 14.4919C3.94496 14.5006 4.02433 14.6056 4.02433 14.7025C4.00683 14.8163 3.91871 14.8869 3.82246 14.8869Z" fill="#E9E9E9"/>
<path d="M27.7569 14.0275C27.6694 14.0275 27.59 13.9575 27.5725 13.8606C27.5462 13.7469 27.625 13.65 27.7212 13.6237L30.2812 13.1237C30.29 13.1237 30.3075 13.115 30.3162 13.115C30.4037 13.115 30.4831 13.185 30.5006 13.2819C30.5006 13.2994 30.5094 13.3081 30.5094 13.3256C30.5181 13.3956 30.4744 13.4656 30.4131 13.4925C30.3956 13.5012 30.3694 13.51 30.3519 13.5187L27.7919 14.0187C27.7831 14.0275 27.7744 14.0275 27.7569 14.0275Z" fill="#E9E9E9"/>
<path d="M5.43561 13.9488C5.42686 13.9488 5.41811 13.9488 5.40936 13.9488L2.84936 13.44C2.75311 13.4138 2.67373 13.3175 2.70061 13.2031C2.72686 13.0981 2.80561 13.0363 2.90248 13.0363C2.91123 13.0363 2.91998 13.0363 2.92873 13.0363L5.48873 13.545C5.58498 13.5713 5.65561 13.6675 5.63748 13.7819C5.61123 13.8869 5.52311 13.9488 5.43561 13.9488Z" fill="#E9E9E9"/>
<path d="M29.9311 11.7744C29.9486 11.7656 29.9661 11.7656 29.9836 11.7656C29.9836 11.7656 29.9836 11.7656 29.9923 11.7656C30.0711 11.7656 30.1498 11.8181 30.1854 11.9056C30.2204 12.0019 30.1767 12.1162 30.0629 12.16L28.9673 12.5194C28.9498 12.5194 28.9323 12.5281 28.9148 12.5281C28.8273 12.5281 28.7479 12.4756 28.7129 12.3969C28.6779 12.3006 28.7217 12.1862 28.8354 12.1425L29.9311 11.7744Z" fill="#E9E9E9"/>
<path d="M3.06883 12.0637C3.01633 12.02 2.99883 11.9412 3.01633 11.8706C3.03383 11.7919 3.11258 11.7219 3.2007 11.7219C3.2182 11.7219 3.2357 11.7219 3.2532 11.7306L4.3757 12.0462C4.47195 12.0725 4.54258 12.1687 4.5157 12.2831C4.4982 12.3619 4.41945 12.4319 4.33133 12.4319C4.31383 12.4319 4.29633 12.4319 4.27883 12.4231L3.15633 12.1075C3.11258 12.1075 3.08633 12.09 3.06883 12.0637Z" fill="#E9E9E9"/>
<path d="M27.1254 11.8881C27.0466 11.8881 26.9766 11.8444 26.941 11.7656C26.906 11.6694 26.941 11.555 27.0372 11.5025L29.4485 10.5031C29.4748 10.4944 29.4923 10.4944 29.5185 10.4944C29.5973 10.4944 29.6672 10.5381 29.7029 10.6169C29.7116 10.6431 29.7204 10.6694 29.7204 10.6956C29.7204 10.7744 29.6854 10.8444 29.6066 10.88L27.1954 11.8794C27.1691 11.8794 27.1516 11.8881 27.1254 11.8881Z" fill="#E9E9E9"/>
<path d="M3.5066 10.5469C3.53285 10.4681 3.6116 10.4244 3.69097 10.4244C3.71722 10.4244 3.73472 10.4244 3.76097 10.4331L6.17222 11.4325C6.26847 11.485 6.31222 11.5994 6.26847 11.6956C6.24222 11.7744 6.16347 11.8181 6.0841 11.8181C6.05785 11.8181 6.04035 11.8181 6.0141 11.8094L3.60285 10.81C3.51535 10.775 3.48035 10.6963 3.4891 10.5994C3.49785 10.5819 3.49785 10.5644 3.5066 10.5469Z" fill="#E9E9E9"/>
<path d="M28.9494 9.24063C29.0194 9.24063 29.0806 9.27563 29.1163 9.33688C29.1338 9.37188 29.1425 9.40688 29.1425 9.43313C29.1425 9.50313 29.1163 9.56438 29.055 9.60001L28.0469 10.1788C28.0206 10.1963 27.9856 10.205 27.9594 10.205C27.8894 10.205 27.8194 10.17 27.7838 10.1088C27.7313 10.0125 27.7575 9.89813 27.845 9.84563L28.8531 9.26688C28.8875 9.24938 28.9138 9.24063 28.9494 9.24063Z" fill="#E9E9E9"/>
<path d="M5.28701 10.1263C5.26076 10.1263 5.22576 10.1175 5.19951 10.1L4.16513 9.57375C4.06888 9.52125 4.02514 9.40688 4.07764 9.31063C4.11264 9.24063 4.18263 9.20563 4.25326 9.20563C4.27951 9.20563 4.31451 9.21438 4.34076 9.23188L5.37513 9.75813C5.47138 9.79313 5.51514 9.925 5.46264 10.0213C5.42701 10.0825 5.35701 10.1263 5.28701 10.1263Z" fill="#E9E9E9"/>
<path d="M26.0914 9.92437C26.0301 9.92437 25.9601 9.88937 25.9245 9.82812C25.8632 9.74062 25.8895 9.6175 25.977 9.55625L28.1514 8.10937C28.1864 8.08312 28.2214 8.07437 28.2564 8.07437C28.3176 8.07437 28.3876 8.10937 28.4232 8.17062C28.4845 8.25812 28.4582 8.38125 28.3707 8.4425L26.1964 9.88937C26.1614 9.90687 26.1264 9.92437 26.0914 9.92437Z" fill="#E9E9E9"/>
<path d="M7.11875 9.86314C7.08375 9.86314 7.04875 9.85439 7.0225 9.83689L4.85688 8.39001C4.76938 8.32876 4.74313 8.21439 4.80438 8.11814C4.84813 8.05689 4.90938 8.03064 4.98 8.03064C5.015 8.03064 5.05 8.03939 5.07625 8.05689L7.24188 9.50376C7.33813 9.56501 7.35563 9.68814 7.29438 9.77564C7.25938 9.83689 7.18938 9.86314 7.11875 9.86314Z" fill="#E9E9E9"/>
<path d="M26.5731 8.10937C26.5206 8.10937 26.4594 8.08312 26.4156 8.03937C26.3369 7.95187 26.3544 7.82874 26.4244 7.76749L27.31 7.01374C27.345 6.97874 27.3887 6.96124 27.4325 6.96124C27.485 6.96124 27.5462 6.98749 27.59 7.03124C27.6687 7.11874 27.6512 7.24187 27.5812 7.30312L26.6956 8.05687C26.6606 8.09187 26.6169 8.10937 26.5731 8.10937Z" fill="#E9E9E9"/>
<path d="M6.68064 8.03938C6.63689 8.03938 6.59314 8.03063 6.55814 8.00438L5.64627 7.29438C5.55877 7.23313 5.55002 7.11001 5.61127 7.02251C5.64627 6.97001 5.70752 6.94376 5.76002 6.94376C5.80377 6.94376 5.84752 6.95251 5.88252 6.97876L6.79439 7.68876C6.88189 7.75001 6.89064 7.87313 6.82939 7.96063C6.79439 8.01313 6.74189 8.03938 6.68064 8.03938Z" fill="#E9E9E9"/>
<path d="M8.54809 8.14436C8.49559 8.14436 8.45184 8.12686 8.40809 8.09186L6.55809 6.25061C6.47934 6.17186 6.47934 6.04874 6.55809 5.97874C6.59309 5.94374 6.64559 5.92624 6.69809 5.92624C6.75059 5.92624 6.79434 5.94374 6.83809 5.97874L8.68809 7.81999C8.77559 7.89874 8.77559 8.02186 8.68809 8.09186C8.64434 8.12686 8.60059 8.14436 8.54809 8.14436Z" fill="#E9E9E9"/>
<path d="M24.8024 6.31251C24.7587 6.31251 24.7149 6.29501 24.6712 6.26001C24.5837 6.19876 24.5749 6.07563 24.6362 5.98813L25.3637 5.07626C25.3987 5.02376 25.4512 5.00626 25.5124 5.00626C25.5562 5.00626 25.5999 5.02376 25.6437 5.05876C25.7312 5.12001 25.7399 5.24313 25.6787 5.33063L24.9512 6.24251C24.9074 6.28626 24.8549 6.31251 24.8024 6.31251Z" fill="#E9E9E9"/>
<path d="M8.45178 6.26C8.39928 6.26 8.34678 6.23375 8.30303 6.19875L7.54053 5.32187C7.46178 5.24312 7.47928 5.12 7.56678 5.05C7.61053 5.015 7.65427 4.9975 7.69802 4.9975C7.75052 4.9975 7.80303 5.02375 7.84678 5.05875L8.60928 5.93562C8.67053 6.02312 8.67053 6.14625 8.58303 6.2075C8.53928 6.25125 8.49553 6.26 8.45178 6.26Z" fill="#E9E9E9"/>
<path d="M22.97 6.75937C22.935 6.75937 22.8913 6.75062 22.8563 6.72437C22.7688 6.66312 22.7425 6.54 22.795 6.4525L24.2419 4.28687C24.2769 4.23437 24.3381 4.19937 24.3994 4.19937C24.4344 4.19937 24.4781 4.20812 24.5131 4.23437C24.6006 4.29562 24.6269 4.41875 24.5744 4.50625L23.1275 6.67187C23.0925 6.73312 23.0313 6.75937 22.97 6.75937Z" fill="#E9E9E9"/>
<path d="M10.2575 6.73313C10.1963 6.73313 10.135 6.70688 10.0907 6.64563L8.64379 4.48C8.58254 4.3925 8.60879 4.26938 8.70504 4.20813C8.74004 4.18188 8.77504 4.17313 8.81879 4.17313C8.88004 4.17313 8.94129 4.19938 8.98566 4.26063L10.4325 6.42625C10.4938 6.5225 10.4675 6.63688 10.3713 6.69813C10.3363 6.72438 10.3013 6.73313 10.2575 6.73313Z" fill="#E9E9E9"/>
<path d="M9.9766 3.48938C10.0379 3.48938 10.0991 3.51563 10.1341 3.57688L10.7129 4.585C10.7654 4.6725 10.7391 4.78688 10.6341 4.84813C10.5991 4.86563 10.5641 4.87438 10.5291 4.87438C10.4679 4.87438 10.4066 4.84813 10.3716 4.78688L9.79285 3.77875C9.74035 3.69125 9.7666 3.56813 9.8716 3.51563C9.9066 3.49813 9.9416 3.48938 9.9766 3.48938Z" fill="#E9E9E9"/>
<path d="M22.6979 4.90061C22.6717 4.90061 22.6367 4.89186 22.6104 4.87436C22.5142 4.82186 22.4704 4.70749 22.5229 4.61124L23.0492 3.57686C23.0842 3.50686 23.1542 3.47186 23.2248 3.47186C23.2511 3.47186 23.2861 3.48061 23.3123 3.49811C23.4086 3.55061 23.4523 3.66499 23.3998 3.76124L22.8736 4.79561C22.8386 4.85686 22.7679 4.90061 22.6979 4.90061Z" fill="#E9E9E9"/>
<path d="M12.221 5.69C12.1422 5.69 12.0722 5.64625 12.0366 5.57625L11.0285 3.165C10.9935 3.06875 11.0372 2.95438 11.1422 2.91063C11.1685 2.90188 11.1947 2.89313 11.221 2.89313C11.2997 2.89313 11.3697 2.93688 11.4053 3.00688L12.4135 5.41813C12.4485 5.50563 12.4047 5.62 12.2997 5.6725C12.2735 5.68125 12.2472 5.69 12.221 5.69Z" fill="#E9E9E9"/>
<path d="M21.0061 5.69876C20.9799 5.69876 20.9536 5.69001 20.9274 5.68126C20.8311 5.64626 20.7786 5.53251 20.8136 5.42689L21.813 3.01564C21.8392 2.94564 21.9092 2.90189 21.9886 2.90189C22.0149 2.90189 22.0411 2.91064 22.0761 2.91939C22.1724 2.95439 22.2249 3.06814 22.1899 3.17376L21.1899 5.58439C21.1461 5.64626 21.0761 5.69876 21.0061 5.69876Z" fill="#E9E9E9"/>
<path d="M12.3618 2.48124C12.3793 2.46374 12.4055 2.44624 12.4318 2.43749C12.458 2.42874 12.4755 2.42874 12.5018 2.42874C12.5805 2.42874 12.6505 2.47249 12.6861 2.55124L13.0455 3.64687C13.0718 3.74312 13.0193 3.85749 12.923 3.90124C12.8968 3.90999 12.8793 3.90999 12.853 3.90999C12.7743 3.90999 12.7043 3.86624 12.6686 3.78749L12.3093 2.69187C12.3005 2.67437 12.3005 2.64812 12.3005 2.63062C12.2918 2.57749 12.318 2.51624 12.3618 2.48124Z" fill="#E9E9E9"/>
<path d="M20.5323 2.4725C20.5673 2.4375 20.6198 2.41125 20.681 2.41125C20.6985 2.41125 20.7073 2.41125 20.7248 2.42C20.821 2.44625 20.9004 2.56 20.8648 2.65688L20.5491 3.77938C20.5316 3.86688 20.4529 3.91938 20.3648 3.91938C20.3473 3.91938 20.3298 3.91938 20.3123 3.91063C20.216 3.88438 20.1366 3.77063 20.1723 3.67375L20.4879 2.55125C20.4885 2.51625 20.506 2.49 20.5323 2.4725Z" fill="#E9E9E9"/>
<path d="M14.3431 5.04126C14.2469 5.04126 14.1675 4.97126 14.15 4.88376L13.6238 2.32376C13.5975 2.22751 13.6763 2.11313 13.7725 2.09563C13.79 2.09563 13.7988 2.08688 13.8163 2.08688C13.8513 2.08688 13.8863 2.09563 13.9125 2.11313C13.965 2.13938 14 2.18313 14.0088 2.23563L14.535 4.79563C14.5613 4.89188 14.5 4.99751 14.3863 5.02376C14.3694 5.04126 14.3519 5.04126 14.3431 5.04126Z" fill="#E9E9E9"/>
<path d="M18.8404 5.04124C18.8317 5.04124 18.8229 5.04124 18.8142 5.04124C18.7004 5.01499 18.6386 4.91874 18.6473 4.81311L19.1561 2.25311C19.1736 2.16561 19.2523 2.09561 19.3492 2.09561C19.3667 2.09561 19.3754 2.09561 19.3929 2.10436C19.5067 2.13061 19.5686 2.22686 19.5598 2.33249L19.0511 4.89249C19.0248 4.97999 18.9367 5.04124 18.8404 5.04124Z" fill="#E9E9E9"/>
<path d="M15.3074 3.41062C15.2024 3.41062 15.1143 3.34062 15.1055 3.24374L14.9568 2.09499C14.948 1.99874 15.018 1.89312 15.1324 1.88437C15.1412 1.88437 15.1499 1.88437 15.1587 1.88437C15.2637 1.88437 15.3518 1.95437 15.3605 2.05124L15.5093 3.19999C15.518 3.29624 15.448 3.40187 15.3337 3.41062C15.3249 3.41062 15.3162 3.41062 15.3074 3.41062Z" fill="#E9E9E9"/>
<path d="M17.8937 3.41063C17.885 3.41063 17.8762 3.41063 17.8675 3.41063C17.7537 3.40188 17.6831 3.31438 17.6831 3.20876L17.7706 2.04251C17.7794 1.94626 17.8581 1.86688 17.9637 1.86688C17.9725 1.86688 17.9812 1.86688 17.9812 1.86688C18.095 1.87563 18.1656 1.96313 18.1656 2.06876L18.0781 3.23501C18.0694 3.34001 17.9987 3.41063 17.8937 3.41063Z" fill="#E9E9E9"/>
<path d="M16.6223 4.81313C16.5085 4.81313 16.4204 4.72563 16.4204 4.62875V2.01625C16.4204 1.92 16.5079 1.83188 16.6223 1.83188C16.736 1.83188 16.8242 1.91938 16.8242 2.01625V4.62875C16.8242 4.72563 16.7185 4.81313 16.6223 4.81313Z" fill="#E9E9E9"/>
</g>
<path d="M71.4226 10.0009H56.5966C53.2831 9.99762 50.5942 12.6811 50.5909 15.9947C50.5899 17.0239 50.8537 18.036 51.3568 18.9338L43.9438 6.21435C49.3432 -0.773773 59.3852 -2.06171 66.3733 3.3376C68.6176 5.07159 70.3602 7.3713 71.4226 10.0009Z" fill="#F44336"/>
<path d="M72.5959 16.0006C72.5885 24.8337 65.4297 31.9925 56.5966 31.9999C55.9276 32.0024 55.2593 31.9578 54.5967 31.8666L61.7964 19.0005C63.4465 16.1278 62.4628 12.4617 59.5965 10.8008C58.6889 10.2754 57.6585 9.99936 56.6099 10.0009H71.4225C72.2011 11.9052 72.5997 13.9433 72.5959 16.0006Z" fill="#FFC107"/>
<path d="M61.7965 19.0005L54.5968 31.8666H54.5835C45.8222 30.7596 39.6171 22.7597 40.724 13.9984C41.0823 11.1626 42.1942 8.47463 43.944 6.21436L51.357 18.9338L51.397 19.0005C53.0501 21.8722 56.7182 22.8601 59.5899 21.2071C60.5073 20.679 61.2685 19.9177 61.7965 19.0005Z" fill="#4CAF50"/>
<path d="M61.7963 19.0005C60.1432 21.8722 56.4751 22.8601 53.6034 21.207C52.6861 20.679 51.9249 19.9177 51.3968 19.0005L51.3568 18.9338C49.7368 16.0432 50.7669 12.3867 53.6575 10.7667C54.5553 10.2635 55.5674 9.9998 56.5966 10.0008H56.6099C57.6585 9.9993 58.6889 10.2753 59.5964 10.8008C62.4629 12.4617 63.4465 16.1278 61.7963 19.0005Z" fill="#F44336"/>
<path d="M61.7963 19.0005C60.1432 21.8722 56.4751 22.8601 53.6034 21.207C52.6861 20.679 51.9249 19.9177 51.3968 19.0005L51.3568 18.9338C49.7368 16.0432 50.7669 12.3867 53.6575 10.7667C54.5553 10.2635 55.5674 9.9998 56.5966 10.0008H56.6099C57.6585 9.9993 58.6889 10.2753 59.5964 10.8008C62.4629 12.4617 63.4465 16.1278 61.7963 19.0005Z" fill="#2196F3"/>
<path d="M56.574 22.667C55.4116 22.6668 54.2698 22.3606 53.2634 21.779C52.2486 21.1921 51.4059 20.3489 50.8195 19.3338C48.9787 16.1453 50.0711 12.0683 53.2596 10.2274C54.2741 9.64168 55.4251 9.33364 56.5966 9.33426C60.2783 9.33139 63.2653 12.3138 63.2681 15.9955C63.2691 17.1674 62.961 18.3189 62.375 19.3338C61.1736 21.3993 58.9635 22.6692 56.574 22.667ZM56.6086 10.6675C54.6953 10.6573 52.9241 11.6756 51.9701 13.3341C50.4974 15.8877 51.3737 19.1518 53.9273 20.6244C56.481 22.0971 59.745 21.2209 61.2177 18.6672C62.6904 16.1165 61.8164 12.8548 59.2656 11.382C58.4581 10.9158 57.5423 10.6695 56.6099 10.6676L56.6086 10.6675Z" fill="#FAFAFA"/>
<defs>
<linearGradient id="paint0_linear_811_816" x1="16.5963" y1="31.9991" x2="16.5963" y2="3.05167e-05" gradientUnits="userSpaceOnUse">
<stop stop-color="#DBDBDA"/>
<stop offset="0.25" stop-color="#DBDBDA"/>
<stop offset="1" stop-color="white"/>
</linearGradient>
<radialGradient id="paint1_radial_811_816" cx="0" cy="0" r="1" gradientUnits="userSpaceOnUse" gradientTransform="translate(19.445 13.3644) scale(18.827)">
<stop stop-color="#69BEFF"/>
<stop offset="1" stop-color="#0072C4"/>
</radialGradient>
<clipPath id="clip0_811_816">
<rect width="32" height="32" fill="white" transform="translate(0.596191)"/>
</clipPath>
</defs>
</svg>
