<svg width="73" height="32" viewBox="0 0 73 32" fill="none" xmlns="http://www.w3.org/2000/svg">
<path d="M16.8872 1.74884L32.8872 29.4608H0.887207L16.8872 1.74884Z" fill="black"/>
<path fill-rule="evenodd" clip-rule="evenodd" d="M56.8871 0C48.0515 0 40.8872 7.16323 40.8872 15.9999C40.8872 23.0688 45.4719 29.0662 51.8286 31.1818C52.6286 31.3302 52.9224 30.8348 52.9224 30.4124C52.9224 30.0309 52.9075 28.7703 52.9003 27.4333C48.4491 28.4013 47.5101 25.5458 47.5101 25.5458C46.7821 23.6966 45.7335 23.2047 45.7335 23.2047C44.2816 22.2116 45.8429 22.2318 45.8429 22.2318C47.4495 22.345 48.2953 23.8808 48.2953 23.8808C49.7226 26.3269 52.0385 25.6198 52.9516 25.2109C53.0953 24.1769 53.5097 23.4707 53.9673 23.0713C50.4136 22.6673 46.678 21.2951 46.678 15.1643C46.678 13.4178 47.3029 11.9902 48.3262 10.87C48.1602 10.4669 47.6125 8.83942 48.4816 6.63566C48.4816 6.63566 49.825 6.20538 52.8819 8.2756C54.1585 7.9212 55.5272 7.74358 56.8869 7.73722C58.2466 7.74358 59.6165 7.9212 60.8951 8.2756C63.949 6.20559 65.2907 6.63545 65.2907 6.63545C66.1615 8.839 65.614 10.4664 65.4476 10.8694C66.4735 11.9898 67.0941 13.4171 67.0941 15.1637C67.0941 21.3095 63.3513 22.6623 59.7886 23.0584C60.3624 23.5553 60.8739 24.5288 60.8739 26.0216C60.8739 28.1624 60.8557 29.8857 60.8557 30.4124C60.8557 30.8385 61.1433 31.337 61.9542 31.1801C68.3088 29.0622 72.8872 23.0669 72.8872 16.0001C72.8872 7.16323 65.7227 0 56.8871 0Z" fill="black"/>
<path d="M46.9487 22.9713C46.9133 23.051 46.7882 23.0752 46.6744 23.0201C46.5578 22.9679 46.4932 22.8594 46.5307 22.7797C46.5652 22.6981 46.6903 22.6754 46.8062 22.7299C46.9224 22.7822 46.9885 22.8916 46.9487 22.9713ZM47.595 23.6945C47.5187 23.7653 47.3692 23.7327 47.2685 23.6208C47.1634 23.5091 47.1441 23.3596 47.2215 23.288C47.2999 23.2174 47.4449 23.2505 47.5494 23.3622C47.6543 23.4749 47.6749 23.6229 47.595 23.6945ZM48.2258 24.6166C48.1276 24.685 47.9672 24.6212 47.868 24.4788C47.7698 24.3364 47.7698 24.1657 47.8701 24.0973C47.9697 24.029 48.1276 24.0909 48.2283 24.2316C48.3258 24.3764 48.3258 24.5468 48.2258 24.6166ZM49.0921 25.507C49.0043 25.6037 48.8176 25.5776 48.6808 25.4456C48.541 25.3167 48.502 25.1336 48.5897 25.0369C48.6787 24.94 48.8665 24.967 49.0043 25.0984C49.1431 25.2268 49.1853 25.4112 49.0921 25.507ZM50.2844 26.0236C50.2454 26.1486 50.066 26.2059 49.8846 26.1523C49.7034 26.0976 49.5849 25.9509 49.6218 25.8243C49.6591 25.6982 49.8401 25.6389 50.0224 25.6959C50.2032 25.7504 50.3221 25.8962 50.2844 26.0236ZM51.5932 26.119C51.5975 26.251 51.444 26.3606 51.2541 26.3627C51.0625 26.367 50.9075 26.2601 50.9054 26.1304C50.9054 25.9969 51.0559 25.8888 51.2467 25.8856C51.4374 25.8814 51.5932 25.988 51.5932 26.1188M52.812 25.9123C52.8347 26.0408 52.7027 26.173 52.5136 26.2082C52.3279 26.2426 52.156 26.1629 52.1325 26.0355C52.1092 25.9034 52.2438 25.7714 52.4292 25.7372C52.6185 25.7042 52.7879 25.7815 52.812 25.9123Z" fill="black"/>
</svg>
