<svg width="112" height="30" viewBox="0 0 112 30" fill="none" xmlns="http://www.w3.org/2000/svg">
<path d="M26.3076 9.99374C25.9745 9.87999 25.6326 9.77436 25.282 9.66936C25.3432 9.43249 25.3957 9.19624 25.4395 8.96811C26.2195 5.18061 25.7113 2.12999 23.9663 1.13061C22.3007 0.166236 19.5651 1.17436 16.8126 3.56811C16.5495 3.79624 16.2776 4.04124 16.0151 4.29561C15.8395 4.12874 15.6645 3.96249 15.4888 3.80436C12.5957 1.23561 9.7026 0.157486 7.96635 1.16561C6.30072 2.12999 5.80072 4.99686 6.50197 8.58249C6.57197 8.93311 6.65072 9.28374 6.73885 9.64311C6.32697 9.75686 5.93197 9.87999 5.5551 10.0112C2.17197 11.195 0.00634766 13.0444 0.00634766 14.9644C0.00634766 16.9456 2.32947 18.9356 5.85385 20.1456C6.13447 20.2419 6.42385 20.33 6.72197 20.4175C6.62572 20.8031 6.5376 21.1887 6.4676 21.5575C5.80135 25.0819 6.31885 27.8787 7.98447 28.8431C9.7026 29.8337 12.587 28.8169 15.3926 26.3619C15.612 26.1687 15.8395 25.9587 16.0588 25.7481C16.3482 26.0287 16.6376 26.2919 16.927 26.5369C19.6445 28.8775 22.3363 29.8244 23.9932 28.86C25.7113 27.8694 26.2638 24.8625 25.5451 21.1975C25.4926 20.9169 25.4226 20.6362 25.352 20.3381C25.5538 20.2769 25.7551 20.2156 25.9482 20.1537C29.6126 18.935 32.0063 16.9712 32.0063 14.9637C31.9976 13.0444 29.762 11.1862 26.3076 9.99374ZM25.5101 18.8662C25.3345 18.9275 25.1595 18.98 24.9751 19.0331C24.572 17.7531 24.0195 16.3856 23.3532 14.9825C23.9932 13.6062 24.5195 12.265 24.9138 10.985C25.2382 11.0812 25.5626 11.1781 25.8695 11.2831C28.8326 12.3 30.6388 13.8081 30.6388 14.9744C30.6301 16.2094 28.6838 17.8137 25.5101 18.8662ZM24.1951 21.47C24.5195 23.0919 24.5632 24.5475 24.3526 25.6956C24.1595 26.7212 23.7826 27.405 23.3007 27.6856C22.2926 28.2731 20.1357 27.51 17.8126 25.5112C17.5495 25.2831 17.2776 25.0381 17.0057 24.775C17.9088 23.7931 18.812 22.6444 19.6882 21.3731C21.2313 21.2331 22.6951 21.0137 24.0195 20.7069C24.0895 20.9612 24.1507 21.2156 24.1951 21.47ZM10.9038 27.5806C9.92197 27.9312 9.1326 27.94 8.65947 27.6681C7.65135 27.0894 7.23072 24.8362 7.8001 21.8206C7.86135 21.4787 7.9401 21.1194 8.03697 20.76C9.35197 21.0494 10.7988 21.26 12.3501 21.3825C13.2357 22.6275 14.1651 23.7756 15.0945 24.7756C14.8926 24.9687 14.6913 25.1612 14.4807 25.3369C13.2445 26.4231 11.9995 27.195 10.9038 27.5806ZM6.2926 18.8575C4.73197 18.3225 3.44322 17.63 2.5576 16.8762C1.7601 16.1925 1.3651 15.5262 1.3651 14.9737C1.3651 13.8075 3.10072 12.3262 6.0026 11.3094C6.35322 11.1869 6.72135 11.0725 7.10697 10.9587C7.5101 12.265 8.03635 13.6237 8.6676 15.0006C8.0276 16.3944 7.4926 17.78 7.08947 19.1037C6.80947 19.0237 6.54635 18.945 6.2926 18.8575ZM7.8351 8.32811C7.2301 5.25061 7.63322 2.93624 8.64197 2.35749C9.71135 1.73499 12.0788 2.62061 14.5776 4.83874C14.7351 4.97874 14.8932 5.12811 15.0601 5.28561C14.1307 6.28499 13.2101 7.42499 12.3332 8.66124C10.8251 8.80124 9.3876 9.02061 8.06385 9.32749C7.97572 8.97686 7.90572 8.64374 7.8351 8.32811ZM21.6438 11.7294C21.3282 11.1856 21.0038 10.6512 20.6707 10.125C21.6876 10.2562 22.6695 10.4231 23.5901 10.6337C23.3182 11.5194 22.9676 12.44 22.5645 13.3869C22.2751 12.8519 21.9682 12.2906 21.6438 11.7294ZM16.0151 6.24999C16.6463 6.93374 17.2776 7.69686 17.9001 8.52061C17.2776 8.49436 16.6376 8.47686 15.9976 8.47686C15.3663 8.47686 14.7351 8.49436 14.1126 8.52061C14.7351 7.70561 15.3751 6.94249 16.0151 6.24999ZM10.3513 11.7469C10.0357 12.2994 9.7376 12.8512 9.44822 13.4037C9.05385 12.4569 8.71197 11.5275 8.43135 10.6331C9.34322 10.4312 10.3163 10.265 11.3332 10.1331C10.9913 10.6512 10.667 11.195 10.3513 11.7469ZM11.3595 19.9094C10.3076 19.7956 9.32572 19.6375 8.41385 19.4362C8.69447 18.5244 9.0451 17.5775 9.44822 16.6131C9.7376 17.1656 10.0357 17.7175 10.3513 18.27C10.6757 18.8306 11.0088 19.3744 11.3595 19.9094ZM16.0501 23.7931C15.4013 23.0919 14.7526 22.32 14.1213 21.4875C14.7351 21.5137 15.3576 21.5225 15.9976 21.5225C16.6463 21.5225 17.2951 21.505 17.9263 21.4787C17.3038 22.3287 16.6726 23.1006 16.0501 23.7931ZM22.5732 16.56C23.0026 17.5331 23.362 18.48 23.6513 19.3744C22.722 19.585 21.7226 19.76 20.6707 19.8831C21.0038 19.3569 21.3282 18.8137 21.6526 18.2525C21.977 17.6912 22.2838 17.13 22.5732 16.56ZM20.4601 17.5775C19.9601 18.4456 19.4432 19.2694 18.9257 20.0587C17.9788 20.1287 16.997 20.1637 15.9976 20.1637C14.9982 20.1637 14.0338 20.1287 13.1045 20.0762C12.5607 19.2875 12.0351 18.4544 11.5438 17.595C11.0438 16.7356 10.5882 15.8769 10.1763 15.0175C10.5882 14.1581 11.0445 13.2906 11.5351 12.44C12.0263 11.5806 12.552 10.7569 13.087 9.96749C14.0426 9.89749 15.0157 9.86249 15.9976 9.86249C16.9882 9.86249 17.9613 9.89749 18.917 9.97624C19.4432 10.7562 19.9601 11.5806 20.4601 12.44C20.9601 13.3081 21.4245 14.1669 21.8363 15.0087C21.4245 15.8412 20.9595 16.7094 20.4601 17.5775ZM23.2832 2.31374C24.3526 2.92749 24.7738 5.42624 24.0988 8.69624C24.0551 8.90686 24.0113 9.11686 23.9588 9.33624C22.6351 9.02936 21.1882 8.80124 19.6807 8.66124C18.8038 7.40749 17.892 6.26811 16.972 5.28561C17.2176 5.04874 17.4632 4.82124 17.7082 4.61061C20.0657 2.54186 22.2751 1.73499 23.2832 2.31374ZM15.9976 12.115C17.5757 12.115 18.8557 13.395 18.8557 14.9731C18.8557 16.5512 17.5757 17.8312 15.9976 17.8312C14.4195 17.8312 13.1395 16.5512 13.1395 14.9731C13.1395 13.395 14.4195 12.115 15.9976 12.115Z" fill="#00D8FF"/>
<path d="M52.1011 9.50082L45.7721 20.5008H40.0063L44.9483 11.9115C45.7144 10.5801 47.6258 9.50082 49.2182 9.50082H52.1011ZM66.2405 12.251C66.2405 10.7321 67.5311 9.50082 69.1234 9.50082C70.7155 9.50082 72.0063 10.7321 72.0063 12.251C72.0063 13.7695 70.7155 15.0008 69.1234 15.0008C67.5311 15.0008 66.2405 13.7695 66.2405 12.2507V12.251ZM53.1823 9.50082H58.9481L52.6189 20.5008H46.8533L53.1823 9.50082ZM59.9924 9.50082H65.7579L60.816 18.0901C60.0499 19.4215 58.1384 20.5008 56.5461 20.5008H53.6632L59.9924 9.50082Z" fill="#F8ED2C"/>
<mask id="mask0_810_259" style="mask-type:luminance" maskUnits="userSpaceOnUse" x="80" y="5" width="33" height="20">
<path d="M80.0063 5.51608H112.006V24.4856H80.0063V5.51608Z" fill="white"/>
</mask>
<g mask="url(#mask0_810_259)">
<path fill-rule="evenodd" clip-rule="evenodd" d="M96.0063 5.51608C91.7397 5.51608 89.073 7.6238 88.0063 11.8392C89.6063 9.73152 91.473 8.94113 93.6063 9.46806C94.8235 9.76841 95.6935 10.6414 96.6564 11.6068C98.225 13.18 100.041 15.0008 104.006 15.0008C108.273 15.0008 110.94 12.8931 112.006 8.67766C110.406 10.7854 108.54 11.5758 106.406 11.0488C105.189 10.7485 104.319 9.87555 103.356 8.9101C101.788 7.33692 99.972 5.51608 96.0063 5.51608ZM88.0063 15.0008C83.7397 15.0008 81.073 17.1085 80.0063 21.324C81.6063 19.2163 83.473 18.4259 85.6063 18.9528C86.8235 19.2537 87.6935 20.1261 88.6564 21.0915C90.225 22.6647 92.0407 24.4856 96.0063 24.4856C100.273 24.4856 102.94 22.3778 104.006 18.1624C102.406 20.2701 100.54 21.0605 98.4063 20.5336C97.1892 20.2332 96.3192 19.3603 95.3563 18.3948C93.7877 16.8217 91.972 15.0008 88.0063 15.0008Z" fill="#38BDF8"/>
</g>
</svg>
